<svg xmlns="http://www.w3.org/2000/svg" viewBox="0 0 300 300"><path fill="#cc7878" d="M226.74 152.32c2.94-7.72 4.25-16.06 3.74-24.35-.02-.3-.11-.61-.27-.9.02-6.34-1.65-12.65-4.89-18.15.43-.75.49-1.78-.13-2.51-6.15-7.26-14.51-12.45-23.61-14.98-.31-.49-.83-.86-1.57-.91-.72-.05-1.44-.08-2.16-.1-.32-.01-.64-.03-.96-.04-3.88-.67-7.86-.87-11.81-.54-1.56.13-2.17 1.57-1.81 2.68-4.3 1.37-8.4 3.39-12.11 6.01-1.8 1.27-.75 4.16 1.53 3.62l.7-.17a65.427 65.427 0 01-12.61 11.64c-1.45 1.02-.91 3.02.27 3.61-.03.03-.05.06-.08.08l-1.56-.66c-1.13-.47-1.95.19-2.26 1.1-.47-.29-.94-.57-1.41-.86-3.03-3.21-6.93-5.68-10.81-7.66-5.88-3-12.26-4.96-18.83-5.67-12.85-1.38-25.94 3.19-33.03 14.44-7.1 11.27-6.98 25.86-2.47 38.04.37 1.01.78 2.01 1.2 3-.14-.04-.28-.09-.42-.13-2.2-.64-3.4 2.44-1.53 3.62 1.76 1.11 3.53 2.21 5.3 3.31 4.95 8.91 11.59 16.9 18.36 24.52-.69.78-.89 2.05 0 2.77 2.77 2.25 5.59 4.42 8.46 6.52 2.82 3.02 5.67 6.01 8.55 8.96-1.97-.32-3.17 2.26-1.34 3.63 3.68 2.76 7.46 5.36 11.33 7.84.1.48.38.93.87 1.23l4.76 2.89c1.91 1.87 3.83 3.74 5.75 5.6 1.53 1.49 3.05 2.99 4.6 4.46 1.15 1.1 2.49 2.07 4.18 1.57 1.66-.49 2.78-2.15 3.87-3.37l4.69-5.26 1.39-1.56c1.08-.39 2.14-.86 3.18-1.37.59.51 1.43.71 2.22.21 9.35-5.94 17.65-13.37 24.54-22.05.85-1.07.36-2.77-.65-3.32 6.54-6.74 12.8-13.74 18.77-20.99.87-1.03 1.72-2.07 2.56-3.14.11-.13.22-.26.32-.4s.21-.27.31-.4c1.35-1.77-1.7-4.16-3.11-2.4-1.44 1.8-2.9 3.58-4.37 5.34a94.577 94.577 0 01-4.01 4.25c.59-.92 1.18-1.84 1.76-2.76.27-.09.54-.24.8-.49 4.22-3.94 7.73-8.54 10.43-13.58 1.09-.31 1.82-1.54 1.32-2.66 1.12-2.42 2.07-4.93 2.82-7.51.27-.93-.12-1.68-.76-2.09zm-61.12 70.65c-1.29.23-2.63.3-3.96.21-1.16-.9-2.34-1.78-3.53-2.64 1.35-.35 2.25-1.99.98-3.25a79.297 79.297 0 00-5.71-5.14c5.06 2.78 10.06 5.68 14.99 8.7.33.2.64.29.94.31l-1.02 1.14c-.88.28-1.78.51-2.7.67zm-16.8-43.31c-9.15-4.25-18.3-8.51-27.45-12.76-1.94-2.2-3.92-4.37-5.93-6.52 11.24 6.23 22.37 12.66 33.38 19.28zm-23.52-34.91c9.68 4.21 19.21 8.75 28.57 13.63 6.01 3.5 12.01 7.01 18.02 10.51 1.97 1.15 3.95 2.3 5.92 3.46-.47.3-.83.77-.95 1.29-7.08-3.95-14.25-7.74-21.51-11.35-9.29-5.19-18.55-10.43-27.79-15.72-.75-.61-1.51-1.22-2.26-1.82zm17.23 26.55l2.85 1.44c11.26 6.41 22.62 12.64 34.09 18.68 0 .01.02.03.03.04h-.05c-.86-.09-1.61.58-1.88 1.37-11.54-7.39-23.22-14.56-35.03-21.52zm5.88-1.45c.38-.11.7-.36.94-.68.78.41 1.56.82 2.33 1.24 5.22 2.83 10.42 5.68 15.61 8.56 3.04 1.69 6.07 3.4 9.1 5.11-.12.21-.18.45-.19.71a680.358 680.358 0 00-27.79-14.93zm7.44-1.68c-3.52-1.92-7.05-3.82-10.58-5.71-.45-.44-.89-.89-1.34-1.33 3.13 1.48 6.25 2.99 9.35 4.54a2793.923 2793.923 0 0026.34 14.53c.33.58.67 1.16 1.02 1.73-8.22-4.67-16.46-9.29-24.79-13.76zm24.6.59c-6.07-3.65-12.22-7.16-18.44-10.53 2.4.74 4.8 1.46 7.22 2.14.26.07.52.08.76.05l6.51 3.51 5.01 2.7c-.74.4-1.24 1.26-1.04 2.12zm-13.43-15.32c2.6 1.46 5.17 2.95 7.74 4.46.02.01.04.03.06.04-2.24-1.2-4.48-2.4-6.73-3.58-.35-.31-.71-.62-1.07-.92zm10.03 1.23l-5.37-3.54c1.4-.25 2.31-2.35 1.07-3.39-1.48-1.24-2.98-2.46-4.48-3.67 1.88 1.04 3.76 2.09 5.63 3.16 3.81 2.78 7.68 5.46 11.63 8.03-.53.56-.73 1.39-.22 2.24.73 1.22 1.49 2.42 2.27 3.61-3.48-2.2-6.98-4.35-10.52-6.45zm6.86-44.21c2.6 2.52 5.25 4.98 7.95 7.39-3.22-1.95-6.44-3.89-9.66-5.84-1.88-1.14-4.16 1.64-2.4 3.11.96.8 1.92 1.6 2.89 2.39-.28-.13-.56-.27-.85-.41-1.49-.7-2.79.35-2.93 1.56-3-1.4-6.03-2.74-9.09-4.03h-.01c4.1-2.99 8.79-5.14 13.72-6.33-.33.67-.3 1.5.39 2.16zm-16.9 6.5c.12.43.38.82.79 1.09l11.32 7.35c-4.66-2.19-9.36-4.3-14.09-6.34.64-.71 1.3-1.42 1.97-2.1zm22.97 18.15c-.77.22-1.29.89-1.39 1.65l-11.52-7.98c4.34 2.04 8.64 4.15 12.91 6.33zm-5.38 60.81c1.64.16 2.71-2.33 1.4-3.38-.13-.1-.25-.22-.38-.32.22-.49.26-1.05.04-1.55 1.61.77 3.23 1.53 4.84 2.3 1.87.89 4.28-1.6 2.4-3.11-2.06-1.66-3.94-3.5-5.64-5.5l2.76 1.5c1.46.79 2.8-.34 2.94-1.59.22.12.44.25.66.37 1.88 1 4.24-1.64 2.4-3.11-.13-.11-.27-.2-.4-.31-.6-.47-1.2-.93-1.81-1.37.68-.84.74-2.22-.44-2.99-2.32-1.5-4.65-2.98-7-4.44-.12-.21-.24-.41-.36-.62 6.44 2.47 12.52 5.72 18.2 9.67-3.99 5.06-8.29 9.9-12.55 14.68-2.25 2.52-4.5 5.05-6.75 7.57-.88-2.67-1.77-5.34-2.65-8.02.78.08 1.57.15 2.35.23zm33.58-71.27c-3.94-2.66-7.89-5.31-11.83-7.97a157.6 157.6 0 0111.27 6.33c.53.33 1.07.67 1.6 1 1.33 3.2 2.14 6.54 2.53 9.95-.26 1.54-.18 3.13.26 4.66 0 3.11-.31 6.24-.9 9.32l-4.71-3.06c2.02.98 3.7-2.19 1.72-3.58l-.58-.4c.36-.83.26-1.92-.65-2.61-1.79-1.35-3.59-2.67-5.42-3.95 1.58.96 3.17 1.91 4.75 2.87 2.22 1.34 4.05-1.97 2-3.42-6.75-4.76-13.25-9.84-19.51-15.21 5.83 3.16 11.65 6.32 17.48 9.49 2.26 1.23 4.1-2 2-3.42zm1.34 26.98c.23.14.46.23.68.27-.1.38-.22.75-.32 1.13l-1.3 2.94a65.43 65.43 0 00-4.71-3.62 33.485 33.485 0 00-4.89-6.95c3.55 2.03 7.07 4.11 10.56 6.24zm-18.53-16.75c1.68 1.01 3.35 2.04 5 3.09 2.92 1.95 5.85 3.9 8.77 5.85l-13.77-8.94zm10.24 36.73c-.04-.4-.23-.81-.62-1.19-.61-.57-1.22-1.13-1.84-1.68.54.28 1.08.56 1.62.83.82.41 1.7.19 2.3-.32-.47.79-.95 1.58-1.45 2.36zm-6.14-24.5c-1.21-.6-2.44-1.17-3.68-1.7-1.4-1.27-2.78-2.58-4.11-3.93 2.89 1.45 5.52 3.36 7.79 5.64zm-5.24 4.2c1.97 1 3.95 1.97 5.95 2.93 3.33 2.55 6.81 4.89 10.41 7.04-.94 2.11-1.87 4.23-2.81 6.34-.04-.4-.23-.8-.63-1.15-5.32-4.79-10.91-9.2-16.71-13.31.27.11.54.23.8.35 1.58.67 3.39-.73 2.98-2.19zm4.3 18.67c1.18 1.12 2.4 2.2 3.65 3.25.7.58 1.52.6 2.18.31-1.07 1.61-2.19 3.18-3.35 4.74a115.96 115.96 0 01-3.62-3.74c.85-.8 1.06-2.39-.2-3.26-2.03-1.42-4.09-2.82-6.15-4.2-1.3-1.67-2.56-3.37-3.76-5.1a87.71 87.71 0 0111.25 8.02zm-24.33 45.36c.08.11.17.22.27.32a65 65 0 01-1.59 1.16l1.32-1.48zm14.75-16.44c1.8-2 3.59-4.01 5.36-6.04.07.09.15.18.23.26-1.84 1.95-3.71 3.87-5.6 5.78zm31.72-71.96c-.56.37-1.07.78-1.54 1.24-.17-.69-.36-1.37-.57-2.05-3.59-11.77-13.17-22.51-25.61-24.92-8.14-1.58-16.05.4-23.04 4.32 1.58-1.82 3.08-3.73 4.48-5.72.43-.61.39-1.26.1-1.8 5.19-2.33 10.8-3.57 16.53-3.62 7.87 1.45 15.27 5.01 21.3 10.33-.04.51.1 1.04.48 1.46 5.11 5.65 7.84 13.2 7.86 20.76zm-70.01-.99c.38.56 1.06.92 1.75.91 2.3 1.21 4.6 2.42 6.89 3.65 6.89 4.77 13.98 9.25 21.25 13.42.09.22.19.44.29.66a471.86 471.86 0 01-25.69-12.76 265.72 265.72 0 01-9.37-8.39l4.89 2.52zm3.36 16.42c-1-.42-2-.85-3-1.27-6.09-4.12-12.16-8.27-18.19-12.47 1.63.79 3.27 1.59 4.89 2.4 5.57 3.57 11.01 7.36 16.29 11.35zm-8.74 3.27c-4.21-2.27-8.42-4.54-12.62-6.82 3.15 1.45 6.27 2.94 9.38 4.46 1.09.78 2.17 1.56 3.24 2.35zm-13.25-31.02c.5.2 1.01.4 1.51.6-.29.64-.24 1.43.41 2.11 1.66 1.72 3.35 3.42 5.06 5.1-2.17-1.35-4.36-2.68-6.55-4.01.13-.45.1-.96-.18-1.48-.25-.45-.51-.9-.78-1.34 0-.19-.01-.38-.06-.57.22-.1.41-.24.58-.4zm12.01 34.85c.9.48 1.8.97 2.69 1.45a322.51 322.51 0 01-9.16-3.34c-3.52-2.05-7.03-4.1-10.55-6.15 5.71 2.6 11.38 5.28 17.02 8.04zm-33.19-41.86c3.38-.46 6.91-.44 10.43-.01-.29.35-.46.78-.43 1.21-.23.54-.24 1.2 0 1.77-.44-.06-.88-.12-1.33-.16-.6-.06-1.07.16-1.39.52-2.81-.84-5.8-1.06-8.71-.57-1.1-.59-2.21-1.16-3.33-1.71 1.53-.47 3.12-.83 4.77-1.05zm-17.68 53.17c.66.35 1.31.7 1.97 1.05-1.3-.42-2.59-.83-3.89-1.23-4.66-9.59-6.99-20.26-4.41-30.88 2.07-8.51 7.29-15.36 14.58-19.15.17.23.41.44.74.59 1.07.5 2.12 1.02 3.17 1.55-.09.57.06 1.17.56 1.62 1.94 1.77 4.08 3.27 6.39 4.46.15.21.34.41.59.59 3.09 2.21 6.19 4.4 9.3 6.59-6.6-3.71-13.38-7.11-20.32-10.18-2.28-1.01-4.23 2.07-2 3.42 3.09 1.88 6.21 3.7 9.36 5.49-2.94-1.12-5.89-2.22-8.86-3.27-2.12-.75-3.49 2.56-1.53 3.62.1.06.21.11.31.17-.03-.01-.06-.02-.09-.04-2.12-.85-3.42 2.52-1.53 3.62 1.57.92 3.14 1.83 4.71 2.75-3.2-1.69-6.38-3.44-9.53-5.24-2.22-1.27-4.2 2.13-2 3.42.33.19.66.4.99.59-.97.78-1.19 2.6.13 3.37 6.46 3.8 12.94 7.57 19.43 11.31-7.03-2.83-14.12-5.5-21.26-8.03-2.1-.74-3.54 2.63-1.53 3.62.63.31 1.27.63 1.9.95-1.8-.59-3.62 1.84-2.02 3.28 1.44 1.3 2.85 2.61 4.27 3.94-.43.9-.33 2.1.7 2.64 1.56.83 3.12 1.67 4.67 2.51 2.88 2.84 5.71 5.73 8.48 8.68l-11.27-5.24c-2.28-1.06-4.28 2.21-2 3.42zm5.51-15.08c-.08.12-.14.25-.19.38-2.53-1.38-5.04-2.79-7.53-4.23 2.58 1.28 5.15 2.56 7.72 3.85zm-1.16 25.53c-.18-.26-.35-.52-.52-.78.22.13.43.26.65.39-.06.12-.1.25-.13.38zm7.81 10.33c-1.81-2.2-3.57-4.44-5.26-6.72 1.88 1.83 3.74 3.68 5.57 5.56-.22.34-.34.75-.32 1.16zm8.88 10.12c-2.43-2.64-4.84-5.32-7.17-8.07 1.5 1 3 2.01 4.5 3.01 1.91 2.08 3.8 4.18 5.65 6.31-.99-.42-1.99-.84-2.99-1.26zm1.49-14.81c-5.27-3.01-10.5-6.09-15.7-9.22 5.55 1.91 11.04 3.97 16.47 6.17 1.47 1.72 2.92 3.47 4.35 5.22-1.7-.74-3.41-1.47-5.13-2.17zm9.77 19.72c-.4-.48-.79-.97-1.19-1.45 1.44.96 2.88 1.93 4.33 2.89-1.04-.49-2.09-.97-3.14-1.45zm-.73-18.99c15.4 8.2 30.8 16.4 46.21 24.59 2.26 1.2 4.14-2.04 2-3.42-1.78-1.15-3.57-2.28-5.37-3.39 1.15.53 2.29 1.06 3.44 1.6.69.32 1.34.26 1.85 0l3.36 10.17c-2.02 2.27-4.05 4.54-6.07 6.81-1.5 1.68-3 3.36-4.49 5.04-.03-.57-.3-1.13-.91-1.53l-29-19.4c.19.03.38.04.57.02 3.02 1.66 6.03 3.37 9.01 5.11 5.18 3.25 10.39 6.45 15.64 9.59 2.2 1.32 4.13-2.05 2-3.42-5.14-3.31-10.36-6.51-15.64-9.59-3.71-2.32-7.4-4.67-11.07-7.05 9.63 5.11 19.36 10.03 29.19 14.74 2.29 1.1 4.16-2.02 2-3.42a315.438 315.438 0 00-38.8-21.47c-1.29-1.67-2.59-3.32-3.92-4.96zm29.56 54.1c-.57.18-.95-.46-1.48-.97l-1.77-1.71c1.1-.13 1.84-1.25 1.65-2.33.56.13 1.13.23 1.7.31.67.51 1.34 1.03 1.99 1.57.14.12.29.21.44.29l-.25.28c-.47.53-1.66 2.36-2.3 2.56z"></path><path fill="#4e4f66" d="M228.31 119.72c-4.28-12.17-15.87-21.38-29.02-23.96-14-2.74-28.5 2-38.77 11.13-9.47-6.22-20.74-9.98-32.35-9.47-13.87.61-27.54 7.78-34.66 19.24-8.6 13.86-4.62 30.37 2.1 44.1 6.52 13.31 15.5 25.62 25.93 36.43 11.87 12.3 25.93 22.66 41.38 30.58 1.42.73 2.99.49 4.17-.51 21.83-18.5 44.65-38.41 56.28-64.52 5.8-13.02 9.78-29.21 4.93-43.03zm-12.1 42.41c-5.44 11.33-13.18 21.5-21.83 30.8-9.33 10.03-19.69 19.13-30.18 28.06-23.54-12.54-43.36-30.93-56.9-53.14-7.19-11.79-14.56-26.33-11.04-40.28 2.96-11.74 13.84-20.18 25.94-22.82 11.76-2.56 23.77.78 33.64 7.03-2.14 3.21 2.45 7.42 5.13 4.26.1-.12.2-.23.31-.35 1.27 1.03 2.49 2.1 3.64 3.22 3.11 3 7.98-1.62 4.86-4.62a68.74 68.74 0 00-3.71-3.3c8.01-6.7 18.61-10.61 29.42-9.24 12.26 1.56 23.46 9.98 26.75 21.44 3.63 12.64-.44 27.33-6.02 38.95z"></path><path fill="#4e4f66" d="M184.18 117.25c-4.38.33-4.42 6.87 0 6.53 8.87-.67 17.55 7.23 16.02 15.91-.73 4.11 5.9 5.88 6.63 1.74 2.22-12.55-8.93-25.21-22.65-24.18z"></path></svg>