<svg xmlns="http://www.w3.org/2000/svg" viewBox="0 0 750 500"><g id="freepik--background-simple--inject-4"><path d="M29.99,85.82l1.54-3.56c13-30.01,41.09-50.89,73.4-53.27,4.15-.31,8.33-.31,12.5,0,29.99,2.23,58.37,20.77,72.75,47.53,8.46,15.74,12.82,34.61,26.35,46.16,17.62,15.04,43.6,12.01,66.28,8.17,22.68-3.84,48.69-6.81,66.24,8.31,10.99,9.47,16.12,24.38,17.34,38.91,3.23,38.49-18.7,76.32-50.22,97.96-31.52,21.64-71.18,28.65-109.27,26.28-53.35-3.32-106.68-25.27-142.46-65.57C28.67,196.44,12.84,137,29.99,85.82Z" style="fill:#f5f5f5;"></path><path d="M558.92,46.11l-1.08,1.55c-9.14,13.08-10.62,30.1-3.34,44.13,.94,1.8,2,3.54,3.2,5.19,8.6,11.89,23.57,18.93,38.37,18.06,8.71-.51,17.66-3.53,25.93-.87,10.76,3.47,16.15,15.04,20.36,25.45,4.21,10.41,9.64,21.97,20.41,25.39,6.75,2.14,14.26,.46,20.61-2.76,16.82-8.51,26.92-27.31,27.84-45.94s-6.32-36.91-17.06-52.12c-15.04-21.32-37.81-37.85-63.71-42.4-25.91-4.55-54.66,4.09-71.53,24.32Z" style="fill:#f5f5f5;"></path><circle cx="491.65" cy="71.45" r="24.7" style="fill:#f5f5f5;"></circle></g><g id="freepik--Floor--inject-4"><path d="M28.14,471.96c0-.14,155.31-.26,346.84-.26s346.88,.12,346.88,.26-155.27,.26-346.88,.26-346.84-.12-346.84-.26Z" style="fill:#263238;"></path></g><g id="freepik--Coats--inject-4"><g><g><path d="M576.54,95.29c-6.17,3.54-8.56,11.46-5.03,17.75,3.65,6.5,11.99,8.79,18.54,11.05,6.99,2.4,14.29,4.99,19.27,10.74,4.68,5.4,5.66,13.84,.64,19.41-5.48,6.08-15.53,5.71-19.8-1.57-1.05-1.8-3.85-.17-2.8,1.64,3.63,6.2,11.39,9.1,18.19,6.66,6.96-2.51,11.38-9.35,11.01-16.72-.37-7.36-5.3-13.22-11.29-17.04-7.13-4.56-15.6-6.05-23.2-9.56-3.8-1.76-7.59-4.28-8.69-8.57-1.12-4.37,.95-8.76,4.8-10.97,1.81-1.04,.18-3.84-1.64-2.8h0Z" style="fill:#6f4439;"></path><path d="M595.89,95.55c-4.36,3.89-5.19,10.98-3.57,16.34,1.78,5.88,6.68,9,11.82,11.73,5.28,2.81,10.18,5.74,13.13,11.15,2.93,5.36,3.47,12.31,1.16,18-1.03,2.56-3.2,5.72-6.26,5.84-3.07,.13-5.21-3.03-6.18-5.55-.74-1.93-3.87-1.09-3.12,.86,1.89,4.93,6.62,9.74,12.27,7.23,5.8-2.57,7.84-9.96,7.92-15.75,.09-6.36-2.25-12.57-6.6-17.23-4.57-4.89-10.99-6.79-16.27-10.66-3.07-2.25-4.97-5.52-5.31-9.32-.33-3.65,.45-7.8,3.29-10.34,1.56-1.39-.74-3.68-2.29-2.29h0Z" style="fill:#6f4439;"></path><path d="M593.2,152.92c0,2.61-2.11,4.72-4.72,4.72s-4.72-2.11-4.72-4.72,2.11-4.72,4.72-4.72,4.72,2.11,4.72,4.72Z" style="fill:#6f4439;"></path><path d="M609.33,152.92c0,2.61-2.11,4.72-4.72,4.72s-4.72-2.11-4.72-4.72,2.11-4.72,4.72-4.72,4.72,2.11,4.72,4.72Z" style="fill:#6f4439;"></path><path d="M583.37,96.13c0,2.61-2.11,4.72-4.72,4.72s-4.72-2.11-4.72-4.72,2.11-4.72,4.72-4.72,4.72,2.11,4.72,4.72Z" style="fill:#6f4439;"></path><path d="M602.37,96.13c0,2.61-2.11,4.72-4.72,4.72s-4.72-2.11-4.72-4.72,2.11-4.72,4.72-4.72,4.72,2.11,4.72,4.72Z" style="fill:#6f4439;"></path><path d="M661.75,98.09c3.32,1.9,5.37,5.42,5.08,9.29-.31,4.16-3.21,7.12-6.68,9.09-7.25,4.12-15.78,5.42-23.14,9.36-6.11,3.27-11.89,8.59-13.3,15.66-1.45,7.3,1.78,15.07,8.5,18.54,7.2,3.72,16.21,1.35,20.35-5.72,1.06-1.8-1.74-3.44-2.8-1.64-3.69,6.3-11.98,7.64-17.77,3.41-6.12-4.47-6.83-13.14-2.88-19.25,4.03-6.23,11.22-9.37,17.95-11.76,6.66-2.36,15-4.2,19.8-9.83,5.36-6.29,3.67-15.85-3.47-19.95-1.81-1.04-3.45,1.76-1.64,2.8h0Z" style="fill:#6f4439;"></path><path d="M641.74,97.84c4.99,4.45,4.24,13.64-.24,18.13-2.35,2.36-5.46,3.83-8.36,5.38-2.84,1.51-5.65,3.11-8.08,5.25-4.63,4.09-7.47,9.85-8.08,15.98-.6,6.06,.81,13.58,5.95,17.46,2.36,1.79,5.34,2.33,8.08,1.09,3.01-1.36,4.88-4.24,6.03-7.23,.75-1.95-2.38-2.79-3.12-.86-.89,2.32-2.64,4.99-5.27,5.49-2.56,.48-4.79-1.61-6.05-3.6-3.31-5.26-3.2-12.65-.88-18.25,2.32-5.61,6.85-9.19,12.05-12,4.96-2.68,10.5-5.23,13-10.64,2.64-5.72,2.21-14.07-2.73-18.49-1.55-1.39-3.85,.9-2.29,2.29h0Z" style="fill:#6f4439;"></path><path d="M646.72,152.92c0,2.61,2.11,4.72,4.72,4.72s4.72-2.11,4.72-4.72-2.11-4.72-4.72-4.72-4.72,2.11-4.72,4.72Z" style="fill:#6f4439;"></path><path d="M630.58,152.92c0,2.61,2.11,4.72,4.72,4.72s4.72-2.11,4.72-4.72-2.11-4.72-4.72-4.72-4.72,2.11-4.72,4.72Z" style="fill:#6f4439;"></path><path d="M656.55,96.13c0,2.61,2.11,4.72,4.72,4.72s4.72-2.11,4.72-4.72-2.11-4.72-4.72-4.72-4.72,2.11-4.72,4.72Z" style="fill:#6f4439;"></path><path d="M637.55,96.13c0,2.61,2.11,4.72,4.72,4.72s4.72-2.11,4.72-4.72-2.11-4.72-4.72-4.72-4.72,2.11-4.72,4.72Z" style="fill:#6f4439;"></path><circle cx="619.76" cy="65.81" r="8.11" transform="translate(134.99 457.51) rotate(-45)" style="fill:#6f4439;"></circle><rect x="614.95" y="71.72" width="9.32" height="341.53" style="fill:#6f4439;"></rect><path d="M579.48,472.47c19.03-12.62,32.21-32.97,35.42-55.64,.97-6.87,1.13-13.78,.33-20.68-.2-1.74-1.35-3.24-3.24-3.24-1.6,0-3.44,1.49-3.24,3.24,2.51,21.72-4.48,43.74-19.5,59.7-3.92,4.17-8.28,7.87-13.05,11.03-3.46,2.3-.22,7.91,3.27,5.6h0Z" style="fill:#6f4439;"></path><path d="M662.8,466.87c-17.56-11.65-29.48-30.6-32.4-51.48-.89-6.37-.88-12.87-.14-19.25,.2-1.74-1.63-3.24-3.24-3.24-1.92,0-3.04,1.49-3.24,3.24-2.71,23.46,5.35,47.34,21.57,64.47,4.25,4.48,9.04,8.44,14.18,11.85,3.49,2.31,6.73-3.3,3.27-5.6h0Z" style="fill:#6f4439;"></path><path d="M616.37,399.94v77.55c0,4.17,6.48,4.18,6.48,0v-77.55c0-4.17-6.48-4.18-6.48,0h0Z" style="fill:#6f4439;"></path></g><g><path d="M630.23,171.81s14.23-7.7,30.28,0l7.04,17.67,2,202.54-21.64,1.66h-5.1l-16.14-5.18-9.77-171.76,1.72-27.59,11.6-17.35Z" style="fill:#FF725E;"></path><g style="opacity:.3;"><path d="M630.23,171.81s14.23-7.7,30.28,0l7.04,17.67,2,202.54-21.64,1.66h-5.1l-16.14-5.18-9.77-171.76,1.72-27.59,11.6-17.35Z"></path></g><path d="M630.23,171.81s14.23-7.7,30.28,0l7.04,17.67,2,202.54-21.64,1.66h-5.1l-16.14-5.18-9.77-171.76,1.72-27.59,11.6-17.35Z" style="fill:#e0e0e0;"></path><g style="opacity:.3;"><path d="M630.23,171.81s14.23-7.7,30.28,0l7.04,17.67,2,202.54-21.64,1.66h-5.1l-16.14-5.18-9.77-171.76,1.72-27.59,11.6-17.35Z"></path></g><g><path d="M674.3,184.71h-57.74l.07-.64c.02-.19,.56-4.77,2.78-6.26,2.05-1.37,9.8-3.93,10.2-4.06l17.41-6.02,.2,.08c2.43,.98,23.77,9.6,25.48,11.26,2.31,2.23,1.73,5.06,1.71,5.18l-.1,.45Zm-56.44-1.14h55.48c.04-.76-.07-2.34-1.44-3.66-1.16-1.13-15.46-7.13-24.92-10.94l-17.01,5.88c-.08,.03-7.99,2.63-9.92,3.92-1.26,.84-1.93,3.35-2.18,4.8Z" style="fill:#263238;"></path><path d="M647.49,168.64l-.99-.56s2.05-3.68,1.7-7.11c-.09-.83-.38-1.41-.91-1.78-1.12-.79-2.9-.38-2.91-.37l-.27-1.11c.09-.02,2.29-.54,3.84,.55,.8,.57,1.27,1.44,1.39,2.6,.39,3.8-1.75,7.63-1.84,7.79Z" style="fill:#263238;"></path></g><path d="M712.98,286.71s-23.87-78.7-26.23-84.21c-2.36-5.51-9.71-23.09-19.67-27.81l-6.56-2.89s3.67,16.53-1.57,27.28c-5.25,10.76-11.8,44.6-12.33,56.14-.52,11.54,1.31,138.46,1.31,138.46l40.92-3.15-.52-93.86,24.66-9.97Z" style="fill:#e0e0e0;"></path><path d="M688.34,298.04s-.04-.24-.07-.71c-.02-.53-.05-1.2-.08-2.04-.04-1.77-.16-4.32-.3-7.48-.31-6.31-.99-15.02-2-24.61-1-9.6-2.11-18.26-2.87-24.54-.38-3.14-.66-5.68-.83-7.45-.09-.88-.13-1.57-.16-2.03-.03-.47-.03-.71-.01-.71,.02,0,.07,.24,.13,.7,.07,.52,.16,1.19,.27,2.02,.25,1.83,.59,4.34,1.01,7.42,.86,6.27,2.03,14.93,3.04,24.53,1.01,9.6,1.62,18.33,1.83,24.66,.08,3.16,.14,5.72,.11,7.49-.01,.83-.02,1.51-.03,2.04-.01,.47-.03,.71-.05,.71Z" style="fill:#263238;"></path><path d="M680.3,261.05s-.17,.02-.46,.04c-.34,.01-.77,.02-1.28,.04-1.17,.02-2.75,.05-4.73,.09l.17-.19c.85,6.51,2.19,17.45,3.65,29.85l.04,.38-.32-.26c2.13-.18,4.2-.35,6.21-.52l-.27,.29c.02-4.24-.31-8.23-.67-11.81-.37-3.58-.78-6.76-1.14-9.41-.37-2.59-.68-4.7-.9-6.23-.1-.68-.18-1.24-.24-1.68-.05-.39-.06-.56-.05-.59,0-.03,.08,.19,.16,.57,.09,.44,.2,.98,.34,1.66,.28,1.45,.66,3.56,1.07,6.21,.41,2.65,.87,5.83,1.27,9.41,.4,3.59,.75,7.59,.75,11.87v.27l-.27,.02c-2,.17-4.08,.35-6.21,.53l-.29,.02-.03-.29-.04-.38c-1.46-12.4-2.7-23.35-3.39-29.88l-.02-.19h.19c2.01,.04,3.62,.07,4.81,.09,.5,.02,.91,.03,1.25,.04,.28,.01,.42,.02,.41,.04Z" style="fill:#263238;"></path><path d="M646.52,252.12s.19-.27,.59-.75c.39-.49,1.03-1.15,1.75-2.1,1.5-1.84,3.55-4.6,5.95-8.09,2.39-3.5,5.11-7.76,7.98-12.59,1.42-2.42,2.91-4.96,4.37-7.64,1.45-2.68,2.98-5.46,4.23-8.41,.89-1.62-.15-3.34-1.06-4.78-.98-1.46-2.14-2.78-3.33-3.97l-.74-.74,1.01,.25c2.7,.66,5.29,1.3,7.77,1.91l-.28,.1c1.19-1.62,1.61-3.62,1.77-5.48,.17-1.88,.04-3.69-.13-5.38-.38-3.39-1.08-6.32-1.73-8.71-.66-2.4-1.28-4.26-1.75-5.52-.46-1.27-.78-1.91-.78-1.91,.05-.04,.44,.6,.95,1.85,.52,1.25,1.2,3.1,1.9,5.5,.7,2.39,1.44,5.33,1.87,8.75,.2,1.71,.34,3.54,.18,5.47-.15,1.91-.55,4-1.84,5.77l-.1,.14-.18-.04c-2.48-.6-5.08-1.22-7.78-1.87l.27-.49c1.23,1.23,2.41,2.55,3.42,4.06,.5,.76,.97,1.56,1.27,2.47,.08,.23,.15,.45,.18,.7,.05,.24,.07,.49,.05,.75,.02,.26-.08,.49-.14,.73-.07,.24-.14,.48-.24,.68-1.27,3.02-2.81,5.79-4.27,8.48-1.47,2.68-2.97,5.22-4.41,7.64-2.9,4.82-5.66,9.06-8.1,12.54-2.45,3.48-4.56,6.2-6.11,8-.75,.92-1.42,1.56-1.84,2.03-.43,.45-.67,.68-.68,.67Z" style="fill:#263238;"></path><path d="M688.34,298.04s-.04-.24-.07-.71c-.02-.53-.05-1.2-.08-2.04-.04-1.77-.16-4.32-.3-7.48-.31-6.31-.99-15.02-2-24.61-1-9.6-2.11-18.26-2.87-24.54-.38-3.14-.66-5.68-.83-7.45-.09-.88-.13-1.57-.16-2.03-.03-.47-.03-.71-.01-.71,.02,0,.07,.24,.13,.7,.07,.52,.16,1.19,.27,2.02,.25,1.83,.59,4.34,1.01,7.42,.86,6.27,2.03,14.93,3.04,24.53,1.01,9.6,1.62,18.33,1.83,24.66,.08,3.16,.14,5.72,.11,7.49-.01,.83-.02,1.51-.03,2.04-.01,.47-.03,.71-.05,.71Z" style="fill:#263238;"></path><path d="M680.3,261.05s-.17,.02-.46,.04c-.34,.01-.77,.02-1.28,.04-1.17,.02-2.75,.05-4.73,.09l.17-.19c.85,6.51,2.19,17.45,3.65,29.85l.04,.38-.32-.26c2.13-.18,4.2-.35,6.21-.52l-.27,.29c.02-4.24-.31-8.23-.67-11.81-.37-3.58-.78-6.76-1.14-9.41-.37-2.59-.68-4.7-.9-6.23-.1-.68-.18-1.24-.24-1.68-.05-.39-.06-.56-.05-.59,0-.03,.08,.19,.16,.57,.09,.44,.2,.98,.34,1.66,.28,1.45,.66,3.56,1.07,6.21,.41,2.65,.87,5.83,1.27,9.41,.4,3.59,.75,7.59,.75,11.87v.27l-.27,.02c-2,.17-4.08,.35-6.21,.53l-.29,.02-.03-.29-.04-.38c-1.46-12.4-2.7-23.35-3.39-29.88l-.02-.19h.19c2.01,.04,3.62,.07,4.81,.09,.5,.02,.91,.03,1.25,.04,.28,.01,.42,.02,.41,.04Z" style="fill:#263238;"></path><path d="M646.52,252.12s.19-.27,.59-.75c.39-.49,1.03-1.15,1.75-2.1,1.5-1.84,3.55-4.6,5.95-8.09,2.39-3.5,5.11-7.76,7.98-12.59,1.42-2.42,2.91-4.96,4.37-7.64,1.45-2.68,2.98-5.46,4.23-8.41,.89-1.62-.15-3.34-1.06-4.78-.98-1.46-2.14-2.78-3.33-3.97l-.74-.74,1.01,.25c2.7,.66,5.29,1.3,7.77,1.91l-.28,.1c1.19-1.62,1.61-3.62,1.77-5.48,.17-1.88,.04-3.69-.13-5.38-.38-3.39-1.08-6.32-1.73-8.71-.66-2.4-1.28-4.26-1.75-5.52-.46-1.27-.78-1.91-.78-1.91,.05-.04,.44,.6,.95,1.85,.52,1.25,1.2,3.1,1.9,5.5,.7,2.39,1.44,5.33,1.87,8.75,.2,1.71,.34,3.54,.18,5.47-.15,1.91-.55,4-1.84,5.77l-.1,.14-.18-.04c-2.48-.6-5.08-1.22-7.78-1.87l.27-.49c1.23,1.23,2.41,2.55,3.42,4.06,.5,.76,.97,1.56,1.27,2.47,.08,.23,.15,.45,.18,.7,.05,.24,.07,.49,.05,.75,.02,.26-.08,.49-.14,.73-.07,.24-.14,.48-.24,.68-1.27,3.02-2.81,5.79-4.27,8.48-1.47,2.68-2.97,5.22-4.41,7.64-2.9,4.82-5.66,9.06-8.1,12.54-2.45,3.48-4.56,6.2-6.11,8-.75,.92-1.42,1.56-1.84,2.03-.43,.45-.67,.68-.68,.67Z" style="fill:#263238;"></path><g><path d="M577.77,286.71s23.87-78.7,26.23-84.21c2.36-5.51,9.71-23.09,19.67-27.81l6.56-2.89s-3.67,16.53,1.57,27.28c5.25,10.76,11.8,44.6,12.33,56.14,.52,11.54-1.31,138.46-1.31,138.46l-40.92-3.15,.52-93.86-24.66-9.97Z" style="fill:#e0e0e0;"></path><path d="M602.41,298.04s-.04-.24-.05-.71c0-.53-.02-1.2-.03-2.04-.04-1.77,.03-4.33,.11-7.49,.21-6.33,.82-15.05,1.83-24.66,1.01-9.61,2.18-18.27,3.04-24.53,.42-3.08,.76-5.59,1.01-7.42,.11-.82,.2-1.49,.27-2.02,.07-.46,.11-.7,.13-.7,.02,0,.02,.25-.01,.71-.03,.46-.07,1.15-.16,2.03-.16,1.76-.45,4.31-.83,7.45-.75,6.28-1.86,14.95-2.87,24.54-1.01,9.59-1.69,18.3-2,24.61-.14,3.16-.26,5.71-.3,7.48-.03,.83-.06,1.51-.08,2.04-.03,.47-.05,.71-.07,.71Z" style="fill:#263238;"></path><path d="M610.44,261.05s.13-.02,.41-.04c.34-.01,.75-.02,1.25-.04,1.19-.02,2.81-.05,4.81-.09h.19l-.02,.19c-.69,6.53-1.93,17.48-3.39,29.88l-.04,.38-.03,.29-.29-.02c-2.13-.18-4.2-.36-6.21-.53l-.27-.02v-.27c0-4.28,.35-8.28,.75-11.87,.4-3.59,.86-6.77,1.27-9.41,.42-2.65,.79-4.76,1.07-6.21l.34-1.66c.08-.37,.15-.59,.16-.57,0,.03,0,.2-.05,.59-.06,.44-.14,.99-.24,1.68-.22,1.53-.52,3.64-.9,6.23-.36,2.65-.78,5.83-1.14,9.41-.36,3.58-.69,7.57-.67,11.81l-.27-.29,6.21,.52-.32,.26,.04-.38c1.46-12.4,2.8-23.34,3.65-29.85l.17,.19c-1.97-.04-3.56-.07-4.73-.09-.52-.02-.94-.03-1.28-.04-.29-.01-.45-.02-.46-.04Z" style="fill:#263238;"></path><path d="M644.23,252.12s-.25-.22-.68-.67c-.42-.46-1.09-1.1-1.84-2.03-1.56-1.8-3.66-4.53-6.11-8-2.44-3.48-5.21-7.73-8.1-12.54-1.44-2.41-2.94-4.96-4.41-7.64-1.46-2.69-2.99-5.46-4.27-8.48-.1-.21-.17-.44-.24-.68-.06-.24-.16-.47-.14-.73-.02-.26,0-.51,.05-.75,.03-.25,.1-.48,.18-.7,.3-.91,.77-1.71,1.27-2.47,1.02-1.51,2.19-2.83,3.42-4.06l.27,.49c-2.7,.65-5.3,1.28-7.78,1.87l-.18,.04-.1-.14c-1.28-1.77-1.68-3.86-1.84-5.77-.15-1.93-.01-3.76,.18-5.47,.42-3.42,1.17-6.36,1.87-8.75,.71-2.39,1.38-4.25,1.9-5.5,.51-1.25,.89-1.89,.95-1.85,0,0-.33,.64-.78,1.91-.46,1.26-1.09,3.13-1.75,5.52-.65,2.4-1.35,5.33-1.73,8.71-.18,1.69-.3,3.5-.13,5.38,.16,1.86,.58,3.86,1.77,5.48l-.28-.1c2.48-.61,5.08-1.25,7.77-1.91l1.01-.25-.74,.74c-1.19,1.2-2.36,2.52-3.33,3.97-.91,1.44-1.95,3.16-1.06,4.78,1.24,2.95,2.78,5.74,4.23,8.41,1.46,2.68,2.95,5.22,4.37,7.64,2.87,4.82,5.59,9.08,7.98,12.59,2.4,3.5,4.45,6.26,5.95,8.09,.72,.94,1.36,1.61,1.75,2.1,.4,.48,.61,.74,.59,.75Z" style="fill:#263238;"></path></g></g><g><path d="M597.82,171.81s14.22-7.7,30.28,0l7.04,17.67,2,148.03-21.64,1.66h-5.1l-16.14-5.18-9.77-117.25,1.72-27.59,11.6-17.35Z" style="fill:#FF725E;"></path><g style="opacity:.3;"><path d="M597.82,171.81s14.22-7.7,30.28,0l7.04,17.67,2,148.03-21.64,1.66h-5.1l-16.14-5.18-9.77-117.25,1.72-27.59,11.6-17.35Z"></path></g><path d="M597.82,171.81s14.22-7.7,30.28,0l7.04,17.67,2,148.03-21.64,1.66h-5.1l-16.14-5.18-9.77-117.25,1.72-27.59,11.6-17.35Z" style="fill:#FF725E;"></path><g style="opacity:.3;"><path d="M597.82,171.81s14.22-7.7,30.28,0l7.04,17.67,2,148.03-21.64,1.66h-5.1l-16.14-5.18-9.77-117.25,1.72-27.59,11.6-17.35Z"></path></g><g><path d="M641.88,184.71h-57.74l.07-.64c.02-.19,.56-4.77,2.78-6.26,2.05-1.37,9.8-3.93,10.2-4.06l17.41-6.02,.2,.08c2.43,.98,23.77,9.6,25.48,11.26,2.31,2.23,1.73,5.06,1.71,5.18l-.1,.45Zm-56.44-1.14h55.48c.04-.76-.07-2.34-1.44-3.66-1.16-1.13-15.46-7.13-24.92-10.94l-17.01,5.88c-.08,.03-7.99,2.63-9.92,3.92-1.26,.84-1.93,3.35-2.18,4.8Z" style="fill:#263238;"></path><path d="M615.07,168.64l-.99-.56s2.05-3.68,1.7-7.11c-.09-.83-.38-1.41-.91-1.78-1.12-.79-2.9-.38-2.91-.37l-.27-1.11c.09-.02,2.29-.54,3.84,.55,.8,.57,1.27,1.44,1.39,2.6,.39,3.8-1.75,7.63-1.84,7.79Z" style="fill:#263238;"></path></g><path d="M680.56,286.71s-23.87-78.7-26.23-84.21c-2.36-5.51-9.71-23.09-19.67-27.81l-6.56-2.89s3.67,16.53-1.57,27.28c-5.25,10.76-11.8,44.6-12.33,56.14-.52,11.54,1.31,83.95,1.31,83.95l40.92-3.15-.52-39.35,24.66-9.97Z" style="fill:#FF725E;"></path><path d="M655.92,298.04s-.04-.24-.07-.71c-.02-.53-.05-1.2-.08-2.04-.04-1.77-.16-4.32-.3-7.48-.31-6.31-.99-15.02-2-24.61-1-9.6-2.11-18.26-2.87-24.54-.38-3.14-.66-5.68-.83-7.45-.09-.88-.13-1.57-.16-2.03-.03-.47-.03-.71-.01-.71,.02,0,.06,.24,.13,.7,.07,.52,.16,1.19,.27,2.02,.25,1.83,.59,4.34,1.01,7.42,.86,6.27,2.03,14.93,3.04,24.53,1.01,9.6,1.62,18.33,1.83,24.66,.08,3.16,.14,5.72,.11,7.49-.01,.83-.02,1.51-.03,2.04-.01,.47-.03,.71-.05,.71Z" style="fill:#263238;"></path><path d="M647.89,261.05s-.17,.02-.46,.04c-.34,.01-.77,.02-1.28,.04-1.17,.02-2.75,.05-4.73,.09l.17-.19c.85,6.51,2.19,17.45,3.65,29.85l.04,.38-.32-.26c2.13-.18,4.2-.35,6.21-.52l-.27,.29c.02-4.24-.31-8.23-.67-11.81-.37-3.58-.78-6.76-1.14-9.41-.37-2.59-.68-4.7-.9-6.23-.1-.68-.18-1.24-.24-1.68-.05-.39-.06-.56-.05-.59,0-.03,.08,.19,.16,.57l.34,1.66c.28,1.45,.66,3.56,1.07,6.21,.41,2.65,.87,5.83,1.27,9.41,.4,3.59,.75,7.59,.75,11.87v.27l-.27,.02c-2,.17-4.08,.35-6.21,.53l-.29,.02-.03-.29-.04-.38c-1.46-12.4-2.7-23.35-3.39-29.88l-.02-.19h.19c2.01,.04,3.62,.07,4.81,.09,.5,.02,.91,.03,1.25,.04,.28,.01,.42,.02,.41,.04Z" style="fill:#263238;"></path><path d="M614.1,252.12s.19-.27,.59-.75c.39-.49,1.03-1.15,1.75-2.1,1.5-1.84,3.55-4.6,5.95-8.09,2.39-3.5,5.11-7.76,7.98-12.59,1.42-2.42,2.91-4.96,4.37-7.64,1.45-2.68,2.98-5.46,4.23-8.41,.89-1.62-.15-3.34-1.06-4.78-.98-1.46-2.14-2.78-3.33-3.97l-.74-.74,1.01,.25c2.7,.66,5.29,1.3,7.77,1.91l-.28,.1c1.19-1.62,1.61-3.62,1.77-5.48,.17-1.88,.04-3.69-.13-5.38-.38-3.39-1.08-6.32-1.73-8.71-.66-2.4-1.28-4.26-1.75-5.52-.46-1.27-.78-1.91-.78-1.91,.05-.04,.44,.6,.95,1.85,.52,1.25,1.2,3.1,1.9,5.5,.7,2.39,1.44,5.33,1.87,8.75,.2,1.71,.34,3.54,.18,5.47-.15,1.91-.55,4-1.84,5.77l-.1,.14-.18-.04c-2.48-.6-5.08-1.22-7.78-1.87l.27-.49c1.23,1.23,2.41,2.55,3.42,4.06,.5,.76,.97,1.56,1.27,2.47,.08,.23,.15,.45,.18,.7,.05,.24,.07,.49,.05,.75,.02,.26-.08,.49-.14,.73-.07,.24-.14,.48-.24,.68-1.27,3.02-2.81,5.79-4.27,8.48-1.47,2.68-2.97,5.22-4.41,7.64-2.9,4.82-5.66,9.06-8.1,12.54-2.45,3.48-4.56,6.2-6.11,8-.75,.92-1.42,1.56-1.84,2.03-.43,.45-.67,.68-.68,.67Z" style="fill:#263238;"></path><path d="M680.56,286.71s-23.87-78.7-26.23-84.21c-2.36-5.51-9.71-23.09-19.67-27.81l-6.56-2.89s3.67,16.53-1.57,27.28c-5.25,10.76-11.8,44.6-12.33,56.14-.52,11.54,1.31,83.95,1.31,83.95l40.92-3.15-.52-39.35,24.66-9.97Z" style="fill:#FF725E;"></path><path d="M655.92,298.04s-.04-.24-.07-.71c-.02-.53-.05-1.2-.08-2.04-.04-1.77-.16-4.32-.3-7.48-.31-6.31-.99-15.02-2-24.61-1-9.6-2.11-18.26-2.87-24.54-.38-3.14-.66-5.68-.83-7.45-.09-.88-.13-1.57-.16-2.03-.03-.47-.03-.71-.01-.71,.02,0,.06,.24,.13,.7,.07,.52,.16,1.19,.27,2.02,.25,1.83,.59,4.34,1.01,7.42,.86,6.27,2.03,14.93,3.04,24.53,1.01,9.6,1.62,18.33,1.83,24.66,.08,3.16,.14,5.72,.11,7.49-.01,.83-.02,1.51-.03,2.04-.01,.47-.03,.71-.05,.71Z" style="fill:#263238;"></path><path d="M647.89,261.05s-.17,.02-.46,.04c-.34,.01-.77,.02-1.28,.04-1.17,.02-2.75,.05-4.73,.09l.17-.19c.85,6.51,2.19,17.45,3.65,29.85l.04,.38-.32-.26c2.13-.18,4.2-.35,6.21-.52l-.27,.29c.02-4.24-.31-8.23-.67-11.81-.37-3.58-.78-6.76-1.14-9.41-.37-2.59-.68-4.7-.9-6.23-.1-.68-.18-1.24-.24-1.68-.05-.39-.06-.56-.05-.59,0-.03,.08,.19,.16,.57l.34,1.66c.28,1.45,.66,3.56,1.07,6.21,.41,2.65,.87,5.83,1.27,9.41,.4,3.59,.75,7.59,.75,11.87v.27l-.27,.02c-2,.17-4.08,.35-6.21,.53l-.29,.02-.03-.29-.04-.38c-1.46-12.4-2.7-23.35-3.39-29.88l-.02-.19h.19c2.01,.04,3.62,.07,4.81,.09,.5,.02,.91,.03,1.25,.04,.28,.01,.42,.02,.41,.04Z" style="fill:#263238;"></path><path d="M614.1,252.12s.19-.27,.59-.75c.39-.49,1.03-1.15,1.75-2.1,1.5-1.84,3.55-4.6,5.95-8.09,2.39-3.5,5.11-7.76,7.98-12.59,1.42-2.42,2.91-4.96,4.37-7.64,1.45-2.68,2.98-5.46,4.23-8.41,.89-1.62-.15-3.34-1.06-4.78-.98-1.46-2.14-2.78-3.33-3.97l-.74-.74,1.01,.25c2.7,.66,5.29,1.3,7.77,1.91l-.28,.1c1.19-1.62,1.61-3.62,1.77-5.48,.17-1.88,.04-3.69-.13-5.38-.38-3.39-1.08-6.32-1.73-8.71-.66-2.4-1.28-4.26-1.75-5.52-.46-1.27-.78-1.91-.78-1.91,.05-.04,.44,.6,.95,1.85,.52,1.25,1.2,3.1,1.9,5.5,.7,2.39,1.44,5.33,1.87,8.75,.2,1.71,.34,3.54,.18,5.47-.15,1.91-.55,4-1.84,5.77l-.1,.14-.18-.04c-2.48-.6-5.08-1.22-7.78-1.87l.27-.49c1.23,1.23,2.41,2.55,3.42,4.06,.5,.76,.97,1.56,1.27,2.47,.08,.23,.15,.45,.18,.7,.05,.24,.07,.49,.05,.75,.02,.26-.08,.49-.14,.73-.07,.24-.14,.48-.24,.68-1.27,3.02-2.81,5.79-4.27,8.48-1.47,2.68-2.97,5.22-4.41,7.64-2.9,4.82-5.66,9.06-8.1,12.54-2.45,3.48-4.56,6.2-6.11,8-.75,.92-1.42,1.56-1.84,2.03-.43,.45-.67,.68-.68,.67Z" style="fill:#263238;"></path><g><path d="M545.35,286.71s23.87-78.7,26.23-84.21c2.36-5.51,9.71-23.09,19.67-27.81l6.56-2.89s-3.67,16.53,1.57,27.28c5.25,10.76,11.8,44.6,12.33,56.14,.52,11.54-1.31,83.95-1.31,83.95l-40.92-3.15,.52-39.35-24.66-9.97Z" style="fill:#FF725E;"></path><path d="M569.99,298.04s-.04-.24-.05-.71c0-.53-.02-1.2-.03-2.04-.04-1.77,.03-4.33,.11-7.49,.21-6.33,.82-15.05,1.83-24.66,1.01-9.61,2.18-18.27,3.04-24.53,.42-3.08,.76-5.59,1.01-7.42,.11-.82,.2-1.49,.27-2.02,.07-.46,.11-.7,.13-.7,.02,0,.02,.25-.01,.71-.03,.46-.07,1.15-.16,2.03-.16,1.76-.45,4.31-.83,7.45-.75,6.28-1.86,14.95-2.87,24.54-1.01,9.59-1.69,18.3-2,24.61-.14,3.16-.26,5.71-.3,7.48-.03,.83-.06,1.51-.08,2.04-.02,.47-.05,.71-.07,.71Z" style="fill:#263238;"></path><path d="M578.03,261.05s.13-.02,.41-.04c.34-.01,.75-.02,1.25-.04,1.19-.02,2.81-.05,4.81-.09h.19l-.02,.19c-.69,6.53-1.93,17.48-3.39,29.88l-.04,.38-.03,.29-.29-.02c-2.13-.18-4.2-.36-6.21-.53l-.27-.02v-.27c0-4.28,.35-8.28,.75-11.87,.4-3.59,.86-6.77,1.27-9.41,.42-2.65,.79-4.76,1.07-6.21l.34-1.66c.08-.37,.15-.59,.16-.57,0,.03,0,.2-.05,.59-.06,.44-.14,.99-.24,1.68-.22,1.53-.52,3.64-.9,6.23-.36,2.65-.78,5.83-1.14,9.41-.36,3.58-.69,7.57-.67,11.81l-.27-.29c2,.17,4.08,.34,6.21,.52l-.32,.26,.04-.38c1.46-12.4,2.8-23.34,3.65-29.85l.17,.19c-1.97-.04-3.56-.07-4.73-.09-.52-.02-.94-.03-1.28-.04-.29-.01-.45-.02-.46-.04Z" style="fill:#263238;"></path><path d="M611.81,252.12s-.25-.22-.68-.67c-.42-.46-1.09-1.1-1.84-2.03-1.56-1.8-3.66-4.53-6.11-8-2.44-3.48-5.21-7.73-8.1-12.54-1.44-2.41-2.94-4.96-4.41-7.64-1.46-2.69-2.99-5.46-4.27-8.48-.1-.21-.17-.44-.24-.68-.06-.24-.16-.47-.14-.73-.02-.26,0-.51,.05-.75,.03-.25,.1-.48,.18-.7,.3-.91,.77-1.71,1.27-2.47,1.02-1.51,2.19-2.83,3.42-4.06l.27,.49c-2.7,.65-5.3,1.28-7.78,1.87l-.18,.04-.1-.14c-1.28-1.77-1.68-3.86-1.84-5.77-.15-1.93-.01-3.76,.18-5.47,.42-3.42,1.17-6.36,1.87-8.75,.71-2.39,1.38-4.25,1.9-5.5,.51-1.25,.89-1.89,.95-1.85,0,0-.33,.64-.78,1.91-.46,1.26-1.09,3.13-1.75,5.52-.65,2.4-1.35,5.33-1.73,8.71-.18,1.69-.3,3.5-.13,5.38,.16,1.86,.58,3.86,1.77,5.48l-.28-.1c2.48-.61,5.08-1.25,7.77-1.91l1.01-.25-.74,.74c-1.19,1.2-2.36,2.52-3.33,3.97-.91,1.44-1.95,3.16-1.06,4.78,1.24,2.95,2.78,5.74,4.23,8.41,1.46,2.68,2.95,5.22,4.37,7.64,2.87,4.82,5.59,9.08,7.98,12.59,2.4,3.5,4.45,6.26,5.95,8.09,.72,.94,1.36,1.61,1.75,2.1,.4,.48,.61,.74,.59,.75Z" style="fill:#263238;"></path></g></g><path d="M614.95,412.77c-.14,0-.26-4.62-.26-10.32s.12-10.32,.26-10.32,.26,4.62,.26,10.32-.12,10.32-.26,10.32Z" style="fill:#263238;"></path><path d="M624.23,412.77c-.14,0-.26-4.62-.26-10.32s.12-10.32,.26-10.32,.26,4.62,.26,10.32-.12,10.32-.26,10.32Z" style="fill:#263238;"></path><path d="M615.34,114.09c.14,0,.26,9.68,.26,21.62s-.12,21.62-.26,21.62-.26-9.68-.26-21.62,.12-21.62,.26-21.62Z" style="fill:#263238;"></path><path d="M623.76,114.09c.14,0,.26,9.68,.26,21.62s-.12,21.62-.26,21.62-.26-9.68-.26-21.62,.12-21.62,.26-21.62Z" style="fill:#263238;"></path></g></g><g id="freepik--Lamp--inject-4"><g><g><path d="M225.56,154.88c1.48,2.07,2.98,4.2,3.7,6.64,.73,2.44,.55,5.3-1.09,7.25-1.91,2.26-5.2,2.73-8.15,2.6-6.44-.3-12.76-2.79-17.67-6.97-3.72,7.44-11.71,12.54-20.02,12.8-8.31,.26-16.6-4.34-20.78-11.53-3.32,4.32-8.9,6.79-14.32,6.33-5.43-.45-11.33-6.53-13.88-11.34l3.65-2.34,20.49-13.06,57.19,.9,10.88,8.72Z" style="fill:#FF725E;"></path><g style="opacity:.3;"><path d="M225.56,154.88c1.48,2.07,2.98,4.2,3.7,6.64,.73,2.44,.55,5.3-1.09,7.25-1.91,2.26-5.2,2.73-8.15,2.6-6.44-.3-12.76-2.79-17.67-6.97-3.72,7.44-11.71,12.54-20.02,12.8-8.31,.26-16.6-4.34-20.78-11.53-3.32,4.32-8.9,6.79-14.32,6.33-5.43-.45-11.33-6.53-13.88-11.34l3.65-2.34,20.49-13.06,57.19,.9,10.88,8.72Z"></path></g><ellipse cx="182.21" cy="76.53" rx="28.3" ry="8.94" style="fill:#FF725E;"></ellipse><path d="M133.35,160.65s15.81-20.56,20.56-39.21c4.74-18.66,0-44.91,0-44.91h56.61s-2.21,27.51,1.58,42.06c3.79,14.55,20.24,42.06,20.24,42.06,0,0-10.75,6.32-24.98-7.27,0,0-19.92,17.39-47.75,0,0,0-17.39,15.5-26.25,7.27Z" style="fill:#FF725E;"></path><path d="M165.39,72.87s.05,.28,.1,.81c.05,.58,.11,1.36,.19,2.34,.15,2.08,.36,5,.62,8.59,.24,3.63,.51,7.95,.66,12.77,.13,4.81,.16,10.11-.3,15.66-1.16,11.05-2.54,21.02-4.08,28.15-.76,3.56-1.51,6.41-2.09,8.37-.27,.98-.53,1.73-.7,2.24-.17,.51-.26,.77-.28,.77s.05-.28,.18-.8c.15-.56,.35-1.32,.6-2.26,.52-1.96,1.21-4.82,1.92-8.39,1.44-7.12,2.76-17.09,3.92-28.12,.45-5.52,.45-10.8,.34-15.61-.12-4.8-.35-9.13-.55-12.76-.19-3.59-.34-6.52-.45-8.6-.04-.98-.07-1.76-.09-2.34-.01-.54-.01-.82,0-.82Z" style="fill:#263238;"></path><path d="M200.74,72.87s.02,.28,0,.82c-.02,.58-.05,1.36-.09,2.34-.11,2.08-.26,5.01-.45,8.6-.19,3.63-.43,7.95-.55,12.76-.11,4.8-.11,10.09,.34,15.61,1.16,11.02,2.48,21,3.92,28.12,.71,3.56,1.4,6.42,1.92,8.39,.25,.95,.45,1.7,.6,2.26,.14,.52,.2,.79,.18,.8-.02,0-.11-.26-.28-.77-.16-.51-.42-1.26-.7-2.24-.58-1.95-1.33-4.8-2.09-8.37-1.53-7.13-2.92-17.09-4.08-28.15-.46-5.55-.43-10.85-.3-15.66,.15-4.81,.42-9.14,.66-12.77,.26-3.59,.47-6.51,.62-8.59,.08-.98,.14-1.75,.19-2.34,.05-.53,.08-.81,.1-.81Z" style="fill:#263238;"></path></g><g><path d="M196.7,459.5c-2.64-6.23-9.58-9.83-9.58-9.83v-77.33s3.88-4.49,3.88-14.51-3.88-20.23-3.88-20.23c0,0,3.23-3.32,3.23-12.89s-3.23-15.26-3.23-15.26v-66.72c5.68-.91,5.31-7.1,5.31-7.1h2.46v-2.81h-2.37c.13-4.21-5.4-5.61-5.4-5.61v-3.03s3.19-.61,3.94-7.43c.76-6.83-3.94-9.86-3.94-9.86v-1.52h1.97v-6.07h-1.97v-1.06s5.01-2.88,5.01-7.28-3.64-12.59-4.25-14.11c-.61-1.52-.76-15.17-.76-15.62h-5.57c0,.46-.15,14.11-.76,15.62-.61,1.52-4.25,9.71-4.25,14.11s5.01,7.28,5.01,7.28v1.06h-1.97v6.07h1.97v1.52s-4.7,3.03-3.94,9.86c.76,6.83,3.94,7.43,3.94,7.43v3.03s-5.53,1.4-5.4,5.61h-2.37v2.81h2.46s-.37,6.19,5.31,7.1v66.72s-3.23,5.69-3.23,15.26,3.23,12.89,3.23,12.89c0,0-3.88,10.21-3.88,20.23s3.88,14.51,3.88,14.51v77.33s-6.94,3.59-9.58,9.83c0,0-14.62,1.44-14.62,12.46h53.98c0-11.02-14.62-12.46-14.62-12.46Z" style="fill:#ae7461;"></path><path d="M189.14,199.27c0,.14-2.15,.26-4.81,.26s-4.81-.12-4.81-.26,2.15-.26,4.81-.26,4.81,.12,4.81,.26Z" style="fill:#6f4439;"></path><path d="M189.14,205.26c0,.14-2.15,.26-4.81,.26s-4.81-.12-4.81-.26,2.15-.26,4.81-.26,4.81,.12,4.81,.26Z" style="fill:#6f4439;"></path><path d="M194.89,232.89c0,.14-4.73,.26-10.56,.26s-10.56-.12-10.56-.26,4.73-.26,10.56-.26,10.56,.12,10.56,.26Z" style="fill:#6f4439;"></path><path d="M194.89,235.6c0,.14-4.73,.26-10.56,.26s-10.56-.12-10.56-.26,4.73-.26,10.56-.26,10.56,.12,10.56,.26Z" style="fill:#6f4439;"></path><path d="M187.59,242.62c0,.14-1.38,.26-3.09,.26s-3.09-.12-3.09-.26,1.38-.26,3.09-.26,3.09,.12,3.09,.26Z" style="fill:#6f4439;"></path><path d="M187.59,227.21c0,.14-1.38,.26-3.09,.26s-3.09-.12-3.09-.26,1.38-.26,3.09-.26,3.09,.12,3.09,.26Z" style="fill:#6f4439;"></path><path d="M187.59,224.43c0,.14-1.38,.26-3.09,.26s-3.09-.12-3.09-.26,1.38-.26,3.09-.26,3.09,.12,3.09,.26Z" style="fill:#6f4439;"></path><path d="M187.59,206.93c0,.14-1.38,.26-3.09,.26s-3.09-.12-3.09-.26,1.38-.26,3.09-.26,3.09,.12,3.09,.26Z" style="fill:#6f4439;"></path><path d="M187.65,337.73c0,.14-1.43,.26-3.2,.26s-3.2-.12-3.2-.26,1.43-.26,3.2-.26,3.2,.12,3.2,.26Z" style="fill:#6f4439;"></path><path d="M187.65,372.56c0,.14-1.43,.26-3.2,.26s-3.2-.12-3.2-.26,1.43-.26,3.2-.26,3.2,.12,3.2,.26Z" style="fill:#6f4439;"></path><path d="M187.82,449.73c0,.14-1.5,.26-3.35,.26s-3.35-.12-3.35-.26,1.5-.26,3.35-.26,3.35,.12,3.35,.26Z" style="fill:#6f4439;"></path><path d="M198.05,459.71c0,.14-6.03,.26-13.46,.26s-13.46-.12-13.46-.26,6.03-.26,13.46-.26,13.46,.12,13.46,.26Z" style="fill:#6f4439;"></path></g><path d="M220.39,137.35s-.12,.05-.35,.12c-.23,.06-.58,.18-1.04,.28-.92,.19-2.3,.41-4.08,.36-1.76-.07-3.93-.36-6.23-1.3-2.3-.89-4.74-2.42-6.8-4.7l.37-.05c-1.31,2.95-3.81,5.69-7.05,7.56-3.25,1.9-7.23,2.84-11.31,2.89-4.23,.03-8.31-.67-11.91-2.03-1.8-.68-3.47-1.56-4.94-2.6-1.46-1.05-2.72-2.28-3.71-3.61l.38-.04c-1.27,2.73-3.47,4.61-5.67,5.58-2.21,1-4.39,1.08-6.08,.83-1.7-.25-2.95-.81-3.75-1.24-.4-.22-.69-.41-.88-.55-.19-.14-.28-.21-.28-.22,.02-.03,.41,.26,1.22,.66,.81,.39,2.05,.91,3.72,1.11,1.65,.21,3.77,.08,5.9-.91,2.11-.97,4.22-2.81,5.41-5.44,.05-.11,.18-.16,.29-.11,.03,.02,.06,.04,.09,.07,.97,1.28,2.2,2.46,3.63,3.48,1.44,1.01,3.08,1.85,4.85,2.52,3.54,1.32,7.58,2,11.73,1.97,4.01-.05,7.9-.96,11.07-2.8,3.17-1.81,5.61-4.45,6.9-7.31,.05-.11,.18-.16,.29-.11,.03,.01,.06,.03,.07,.06,1.98,2.24,4.35,3.76,6.6,4.66,2.24,.94,4.37,1.27,6.11,1.38,1.74,.09,3.12-.08,4.04-.23,.92-.17,1.41-.29,1.42-.26Z" style="fill:#e0e0e0;"></path></g></g><g id="freepik--Speech_Bubble--inject-4"><g><g><path d="M471.21,127.14l-7.6,.32c-2.88,3.28-6.68,5.84-11.17,7.22-12.9,3.96-26.57-3.28-30.53-16.18-3.96-12.9,3.28-26.57,16.18-30.53,12.9-3.96,26.57,3.28,30.53,16.18,1.65,5.39,1.35,10.9-.5,15.79h0l3.08,7.2Z" style="fill:#fff;"></path><path d="M471.21,127.14s-.07-.16-.21-.47c-.14-.31-.34-.77-.6-1.38-.53-1.21-1.3-3.01-2.31-5.34h.08v.02l-.21,.27,.11-.32c.54-1.48,1.05-3.22,1.32-5.22,.29-2,.33-4.25,0-6.65-.32-2.4-1.06-4.94-2.28-7.45-1.23-2.5-2.98-4.94-5.25-7.06-2.27-2.12-5.08-3.9-8.26-5.06-3.18-1.17-6.74-1.69-10.36-1.39-3.62,.29-7.27,1.45-10.55,3.41-3.28,1.97-6.15,4.79-8.21,8.2-1.05,1.71-1.85,3.54-2.45,5.41-.59,1.88-.93,3.81-1.05,5.72-.24,3.84,.47,7.63,1.88,10.99,1.42,3.36,3.56,6.28,6.09,8.56,2.52,2.29,5.43,3.93,8.38,4.95,2.95,1.02,5.94,1.43,8.73,1.33,1.4-.05,2.74-.21,4.03-.46,1.28-.26,2.5-.61,3.64-1.03,2.28-.84,4.24-1.94,5.87-3.13,1.64-1.18,2.94-2.44,3.98-3.61v-.02h.03c2.46-.09,4.35-.16,5.64-.21,.64-.02,1.13-.04,1.46-.05,.33-.01,.5-.01,.5-.01,0,0-.16,.01-.48,.03-.33,.02-.81,.04-1.45,.07l-5.67,.27,.03-.02c-1.04,1.18-2.34,2.45-3.98,3.64-1.63,1.19-3.6,2.32-5.89,3.16-1.14,.42-2.37,.78-3.65,1.05-1.29,.26-2.65,.43-4.05,.48-2.81,.11-5.82-.3-8.8-1.32-2.97-1.02-5.9-2.67-8.45-4.98-2.55-2.3-4.71-5.24-6.15-8.62-1.42-3.39-2.15-7.21-1.9-11.09,.13-1.94,.47-3.88,1.06-5.78,.6-1.89,1.41-3.74,2.47-5.46,2.08-3.44,4.98-6.28,8.29-8.27,3.31-1.98,7-3.15,10.65-3.44,3.65-.3,7.24,.23,10.44,1.41,3.21,1.18,6.03,2.98,8.32,5.12,2.29,2.14,4.05,4.6,5.28,7.13,1.22,2.53,1.96,5.09,2.27,7.51,.32,2.42,.27,4.68-.03,6.69-.28,2.01-.8,3.76-1.35,5.24l-.08-.04h0l.05-.08,.03,.08c.99,2.36,1.75,4.17,2.27,5.39,.25,.6,.44,1.06,.58,1.38,.13,.31,.19,.46,.19,.46Z" style="fill:#263238;"></path></g><path d="M456.76,109.73c-.14-1.43-.81-2.78-1.75-3.87-.92-1.07-2.14-1.92-3.51-2.24-1.46-.34-3.05-.06-4.3,.77-.74,.49-1.36,1.17-1.79,1.95-.4-.71-.95-1.33-1.6-1.8-1.22-.87-2.81-1.21-4.28-.91-1.38,.28-2.62,1.09-3.58,2.12-.98,1.06-1.69,2.39-1.88,3.81-.23,1.79,.08,3.76,.98,5.32,.95,1.65,2.52,2.99,4.13,4,2.72,1.7,6.29,3.83,6.29,3.83,0,0,3.09-2.23,5.86-3.84,1.65-.96,3.25-2.25,4.26-3.87,.95-1.53,1.33-3.49,1.16-5.28Z" style="fill:#FF725E;"></path></g></g><g id="freepik--Boxes--inject-4"><g><g><rect x="466.57" y="400.02" width="95.76" height="72.39" style="fill:#ae7461;"></rect><g><g style="opacity:.3;"><path d="M526.26,408.52v-3.37h5.81v3.37c0,1.44-1.11,2.64-2.53,2.82v2.94h1.29c.45,0,.82,.26,.82,.57h-4.96c0-.31,.37-.57,.82-.57h1.29v-2.94c-1.42-.18-2.53-1.38-2.53-2.82Z" style="fill-rule:evenodd;"></path><path d="M515.14,408.29c.45-1.8,2.12-3.15,4.09-3.15h0c1.97,0,3.64,1.35,4.09,3.15h-3.7v5.29c.03,.41,.39,.74,.82,.74s.78-.32,.82-.74h.79c-.03,.84-.74,1.51-1.6,1.51s-1.57-.67-1.61-1.51v-5.29h-3.69Z" style="fill-rule:evenodd;"></path></g><g style="opacity:.3;"><rect x="538.58" y="400.02" width="23.75" height="72.39" transform="translate(1100.91 872.42) rotate(180)"></rect></g><path d="M538.53,471.68c-.13,0-.24-16.05-.24-35.85s.11-35.85,.24-35.85,.24,16.05,.24,35.85-.11,35.85-.24,35.85Z" style="fill:#263238;"></path><rect x="546.87" y="455.71" width="7.34" height="8.13" style="fill:#fff;"></rect><g style="opacity:.3;"><rect x="495.79" y="400.2" width="10.88" height="15.45"></rect></g><g style="opacity:.3;"><rect x="495.79" y="456.74" width="10.88" height="15.45"></rect></g><path d="M467.27,400.06c0,.11,21.24,.19,47.43,.19s47.43-.09,47.43-.19-21.23-.19-47.43-.19-47.43,.09-47.43,.19Z" style="fill:#263238;"></path></g></g><g><path d="M510.56,441.03h-16.1c-.38,0-.69-.31-.69-.69s.31-.69,.69-.69h15.52l1.67-9.25h-18.71c-.38,0-.69-.31-.69-.69s.31-.69,.69-.69h19.54c.21,0,.4,.09,.53,.25,.13,.16,.19,.37,.15,.57l-1.92,10.64c-.06,.33-.35,.57-.68,.57Z" style="fill:#e0e0e0;"></path><path d="M510.03,444.75h0l-15.33-.05c-.35,0-.64-.26-.69-.61l-2.17-16.54h-4.31c-.38,0-.69-.31-.69-.69s.31-.69,.69-.69h4.92c.35,0,.64,.26,.69,.61l2.17,16.55,14.73,.05c.38,0,.69,.31,.69,.7,0,.38-.31,.69-.69,.69Z" style="fill:#e0e0e0;"></path><path d="M497.2,450.1c-1.44,0-2.6-1.15-2.6-2.56s1.17-2.57,2.6-2.57,2.6,1.15,2.6,2.57-1.17,2.56-2.6,2.56Zm0-3.74c-.67,0-1.21,.53-1.21,1.18s.54,1.18,1.21,1.18,1.21-.53,1.21-1.18-.54-1.18-1.21-1.18Z" style="fill:#e0e0e0;"></path><path d="M507.78,450.1c-1.44,0-2.6-1.15-2.6-2.56s1.17-2.57,2.6-2.57,2.6,1.15,2.6,2.57-1.17,2.56-2.6,2.56Zm0-3.74c-.67,0-1.21,.53-1.21,1.18s.54,1.18,1.21,1.18,1.21-.53,1.21-1.18-.54-1.18-1.21-1.18Z" style="fill:#e0e0e0;"></path><path d="M499.43,441.03c-.36,0-.67-.28-.69-.65l-.65-10.3c-.02-.38,.27-.71,.65-.74,.37-.04,.71,.27,.74,.65l.65,10.3c.02,.38-.27,.71-.65,.74-.01,0-.03,0-.04,0Z" style="fill:#e0e0e0;"></path><path d="M505.32,441.03s-.03,0-.04,0c-.38-.02-.68-.35-.65-.73l.59-10.3c.02-.38,.36-.7,.73-.65,.38,.02,.68,.35,.65,.73l-.59,10.3c-.02,.37-.33,.66-.69,.66Z" style="fill:#e0e0e0;"></path><path d="M493.54,435.88c-.38,0-.69-.31-.69-.69,0-.38,.3-.7,.69-.7l17.98-.17h0c.38,0,.69,.31,.69,.69,0,.38-.3,.7-.69,.7l-17.98,.17h0Z" style="fill:#e0e0e0;"></path></g></g><g><rect x="651.56" y="409.76" width="65.96" height="29.86" style="fill:#ae7461;"></rect><rect x="648.09" y="406.46" width="72.6" height="8.48" style="fill:#6f4439;"></rect><path d="M691.1,427.88h-11.82c-1.41,0-2.56-1.15-2.56-2.56h0c0-1.41,1.15-2.56,2.56-2.56h11.82c1.41,0,2.56,1.15,2.56,2.56h0c0,1.41-1.15,2.56-2.56,2.56Z" style="fill:#6f4439;"></path><rect x="651.56" y="442.1" width="65.96" height="29.86" style="fill:#ae7461;"></rect><rect x="648.09" y="438.8" width="72.6" height="8.48" style="fill:#6f4439;"></rect><path d="M691.1,460.23h-11.82c-1.41,0-2.56-1.15-2.56-2.56h0c0-1.41,1.15-2.56,2.56-2.56h11.82c1.41,0,2.56,1.15,2.56,2.56h0c0,1.41-1.15,2.56-2.56,2.56Z" style="fill:#6f4439;"></path></g></g><g id="freepik--Dress--inject-4"><g><g><g><rect x="91.66" y="330.36" width="3.14" height="137.65" style="fill:#e0e0e0;"></rect><polygon points="73.74 471.96 111.27 471.96 94.8 462.28 91.66 462.28 73.74 471.96" style="fill:#e0e0e0;"></polygon></g><path d="M116,238.2c.46-4.69,11.73-30.63,11.73-35.32s-12.19-9.07-18.13-12.19c-5.94-3.13-5.31-12.19-5.31-12.19h-18.96s.63,9.07-5.31,12.19c-5.94,3.13-18.13,7.5-18.13,12.19s11.27,30.63,11.73,35.32c.46,4.69,3.9,13.75,1.71,19.07-2.19,5.31-13.58,19.53-15.43,45.43l34.52,.84h.78l33.55-.84c.28-22.4-12.27-40.11-14.46-45.43s1.25-14.38,1.71-19.07Z" style="fill:#ebebeb;"></path><path d="M104.09,178.56c.48-.36-3.78-2.8-7.09-2.88-3.31-.08-9.07,1-11.69,3.01,0,0,8.75,7.37,18.78-.13Z" style="fill:#e0e0e0;"></path><path d="M128.75,302.69c0,.56-15.41,1.02-34.42,1.02s-34.43-.46-34.43-1.02,15.41-1.02,34.43-1.02,34.42,.46,34.42,1.02Z" style="fill:#e0e0e0;"></path></g><g><path d="M143.54,452.11s-10.11-143.33-14.8-165.04c-4.69-21.7-13.07-29.35-13.07-29.35l4.65-23.92,21.49-8.14s-10.85-21.95-14.06-27.13-15.78-7.89-15.78-7.89l-17.03,57.07-17-57.07s-12.58,2.71-15.78,7.89c-3.21,5.18-14.06,27.13-14.06,27.13l21.49,8.14,4.65,23.92s-8.38,7.64-13.07,29.35c-4.69,21.7-14.8,165.04-14.8,165.04,0,0,30.04,.25,50.01,0h0c19.89-.04,47.15,0,47.15,0Z" style="fill:#FF725E;"></path><path d="M115.53,257.97c0,.15-9.23,.27-20.6,.27s-20.61-.12-20.61-.27,9.22-.27,20.61-.27,20.6,.12,20.6,.27Z" style="fill:#263238;"></path><path d="M61.8,214.13c.14-.05,1.98,4.81,4.1,10.86,2.12,6.05,3.72,10.99,3.58,11.04-.14,.05-1.98-4.81-4.1-10.86-2.12-6.05-3.72-10.99-3.58-11.04Z" style="fill:#263238;"></path><path d="M123.19,209.36s.01,.38-.07,1.04c-.11,.79-.23,1.72-.38,2.81-.35,2.51-.79,5.71-1.28,9.25-.45,3.55-.86,6.75-1.18,9.27-.14,1.09-.27,2.02-.37,2.81-.1,.66-.17,1.03-.21,1.02-.04,0-.04-.38,0-1.04,.03-.67,.1-1.64,.2-2.83,.2-2.39,.55-5.68,1.03-9.3,.48-3.62,1.01-6.89,1.44-9.24,.22-1.18,.4-2.13,.55-2.78,.14-.65,.24-1.01,.28-1.01Z" style="fill:#263238;"></path></g><g style="opacity:.3;"><path d="M59.21,300.14l-.46,3.94c7.79,15.52,23.07,25.37,38.53,33.26-7.88-16.39-21.45-29.83-38.08-37.2Z" style="fill:#fff;"></path></g><g style="opacity:.3;"><path d="M59.46,295.59l-.37,2.78c12.37,2.39,28.83-2.93,40.21-8.33-12.91-2.73-28.25-.75-39.84,5.55Z" style="fill:#fff;"></path></g><g style="opacity:.3;"><path d="M139.02,392.66l-.26-3.85c-12.24-12.32-30.36-16.95-47.51-19.63,12.6,13.12,29.68,21.66,47.78,23.48Z" style="fill:#fff;"></path></g><g style="opacity:.3;"><path d="M139.42,397.29l-.24-3.12c-12.5,1.58-26.85,11.92-35.99,20.6,13.12-1.43,27.18-7.87,36.23-17.47Z" style="fill:#fff;"></path></g><g style="opacity:.3;"><path d="M53.13,452.29h4.18c10.41-13.9,11.94-33.32,12.09-50.68-11.15,14.37-17.11,32.51-16.27,50.68Z" style="fill:#fff;"></path></g><g style="opacity:.3;"><path d="M101.41,239.5c4.58,4.17,9.71,8.28,15.67,10.96l1.64-8.42c-6.04-1.59-12-2.08-17.31-2.54Z" style="fill:#fff;"></path></g><g style="opacity:.3;"><path d="M65.96,195.24c1.18,6.06,1.62,12.3,3.69,18.12s5.08,11.4,9.47,15.74c.07-12.29-4.42-24.58-10.13-35.46" style="fill:#fff;"></path></g></g></g></svg>
