<svg xmlns="http://www.w3.org/2000/svg" viewBox="0 0 600 600"><path fill="none" d="M549.95 331.52c.17-.61.3-1.22.4-1.82 5.2-2.41 9.54-7.81 10.3-13.08 1.17-8.12-2.58-15.42-9.76-19.35-1.52-.83-3.06-1.59-4.62-2.32 1.71-2.06 2.92-4.6 3.36-7.62.52-3.63-.09-7.59-1.68-11.08-.7-3.19-2.26-6.22-4.46-8.64 1.27-.62 2.53-1.25 3.79-1.93 5.33-2.87 8-10.33 7.54-16.01-.51-6.3-4.38-11.8-10.01-14.59-18.73-9.25-38.57-13.72-59.32-14.81-1.7-.09-3.36.21-4.93.8-2.43-2.64-5.62-4.52-9.35-5.02-54.74-7.24-110.11-7.18-165.02-2.04a944.37 944.37 0 00-78.74-1.52c-2.32-.14-4.64-.26-6.97-.39-16.89-.9-33.78-1.53-50.69-1.76-15.92-.22-31.84-.12-47.76.3-16.54.43-32.85 1.46-48.81 6.23-2.56.76-4.89 2.37-6.79 4.45-6.15 3.27-10.51 10.21-9.63 17.24.43 3.44 1.72 6.54 3.63 9.1-2.66.22-5.32.46-7.97.72-15.13 1.5-22.06 21.21-10.08 31.26a35.43 35.43 0 004.41 3.15c.82 4.61 3.07 8.4 6.29 11.03.01.46.04.92.1 1.37.49 3.9 1.95 7.19 4.11 9.77.49 1.77 1.23 3.5 2.18 5.12-2.26 3.27-3.47 7.24-2.96 11.26.27 2.15.88 4.15 1.74 5.97l-.33.36c-1.97 2.32-3.49 5.57-4.04 8.82-4.35 3.67-7.09 9.32-6.37 15.02.91 7.21 4.9 12.04 10.56 14.47-.06 1.48.05 2.93.35 4.32 1.93 8.84 9.71 14.22 18.64 13.95 7.13-.22 14.26-.43 21.39-.65 3.54 4.08 8.9 6.41 14.74 6.14 29.92-1.36 59.81-3.34 89.65-5.92 1.56.33 3.2.48 4.9.39 83.79-4.19 167.74-4.49 251.56-.99 23.79 1 47.66 1.98 71.33-1.26 8.4-1.15 15-7.08 16.03-15.49.29.01.57.03.86.04 8.79.44 15.74-8.95 16.16-16.77.49-9.23-5.43-15.49-13.74-18.23z" style="fill:#cc7878;opacity:0.3"></path></svg>