<svg xmlns="http://www.w3.org/2000/svg" viewBox="0 0 600 600"><path fill="#cc7878" d="M562.91 313.43c-.49-10.96-8.16-17.32-18.5-18.5a4497.857 4497.857 0 00-264.4-22.24l10.14-.24c19.76-.48 39.45-1.73 58.93-5.31.23-.04.45-.11.67-.17 26.57-.21 53.14.05 79.69.69 35.55.85 71.08 2.37 106.59 4.27 9.68.52 18.93-8.88 18.5-18.5-.48-10.82-8.15-17.5-18.5-18.5-116.79-11.25-234.37-13.95-351.55-7.94-16.07.82-32.13 1.82-48.18 2.97-4.44-5.99-11.98-9.21-19.73-7.07-21.32 5.88-42.68 11.66-64.06 17.33-8.92 2.37-14.45 11.37-13.25 20.3.23 1.71.75 3.42 1.49 5.05-2.39 3.27-3.83 7.24-3.66 11 .38 8.56 5.57 15.03 13.58 17.84 27.03 9.49 56.29 9.36 84.74 9.81-.86 1.47-1.53 3-1.94 4.49-1.85 6.7.34 12.93 4.76 18 11.72 13.43 31.66 13.69 47.99 15.52 16.35 1.84 32.76 3.16 49.17 4.35 7.87.57 15.75 1.11 23.63 1.66.13 2.8.87 5.55 2.34 7.99 6.38 10.62 17.05 18.93 29.39 21.2 8.45 1.55 18.02-1.73 21.67-9.76 26.22 1.03 52.48.57 78.67-1.38 9.26-.69 16.89-6.51 18.17-16.04 1.2-8.92-4.29-17.94-13.25-20.3-14.86-3.91-29.87-6.91-44.96-9.3 35.77.75 71.51 2.61 107.21 4.96 28.74 1.9 57.45 4.11 86.17 6.34 9.67.75 18.92-9.04 18.5-18.5z"></path></svg>